<?xml version="1.0" encoding="utf-8"?>
<!-- Generator: Adobe Illustrator 18.0.0, SVG Export Plug-In . SVG Version: 6.00 Build 0)  -->
<!DOCTYPE svg PUBLIC "-//W3C//DTD SVG 1.1//EN" "http://www.w3.org/Graphics/SVG/1.1/DTD/svg11.dtd">
<svg version="1.1" id="Arrow_1_" xmlns="http://www.w3.org/2000/svg" xmlns:xlink="http://www.w3.org/1999/xlink" x="0px" y="0px"
	 width="500px" height="500px" viewBox="0 0 500 500" enable-background="new 0 0 500 500" xml:space="preserve">
  <metadata>
    <?xpacket begin="﻿" id="W5M0MpCehiHzreSzNTczkc9d"?>
    <x:xmpmeta xmlns:x="adobe:ns:meta/" x:xmptk="Adobe XMP Core 5.6-c011 79.156380, 2014/06/19-23:40:37        ">
     <rdf:RDF xmlns:rdf="http://www.w3.org/1999/02/22-rdf-syntax-ns#">
      <rdf:Description rdf:about=""
        xmlns:xmpMM="http://ns.adobe.com/xap/1.0/mm/"
        xmlns:stEvt="http://ns.adobe.com/xap/1.0/sType/ResourceEvent#"
        xmlns:xmp="http://ns.adobe.com/xap/1.0/"
        xmlns:xmpRights="http://ns.adobe.com/xap/1.0/rights/"
        xmlns:dc="http://purl.org/dc/elements/1.1/"
       xmpMM:DocumentID="xmp.did:0f4efe4c61127b18f1402f7b0d86de8a"
       xmpMM:OriginalDocumentID="xmp.did:0f4efe4c61127b18f1402f7b0d86de8a"
       xmpMM:InstanceID="xmp.iid:0f4efe4c61127b18f1402f7b0d86de8a"
       xmp:ModifyDate="2015-04-21T11:26:13+02:00"
       xmp:MetadataDate="2015-04-21T11:26:13+02:00"
       xmpRights:Marked="True"
       xmpRights:WebStatement="http://www.adobe.com/legal/general-terms.html">
       <xmpMM:History>
        <rdf:Seq>
         <rdf:li
          stEvt:action="saved"
          stEvt:instanceID="xmp.iid:0f4efe4c61127b18f1402f7b0d86de8a"
          stEvt:when="2015-04-21T11:26:13+02:00"/>
        </rdf:Seq>
       </xmpMM:History>
       <xmpRights:UsageTerms>
        <rdf:Alt>
         <rdf:li xml:lang="x-default">This work is licensed under the Adobe General Terms of Use http://www.adobe.com/legal/general-terms.html.</rdf:li>
        </rdf:Alt>
       </xmpRights:UsageTerms>
       <dc:publisher>
        <rdf:Bag>
         <rdf:li>Adobe Systems Incorporated</rdf:li>
        </rdf:Bag>
       </dc:publisher>
      </rdf:Description>
     </rdf:RDF>
    </x:xmpmeta>
    <?xpacket end="r"?>
  </metadata>
<g id="_x31_019-music-note-2-toolbar-selected_x40_2x.png">
	<g>
		<path d="M488.4,0c-0.5,0-0.9,0.2-1.4,0.3l0-0.2L191.7,45.5l0,0.2c-5.6,0.7-10,5.3-10,11.1V362c-23.1-19.6-60.9-27.2-99.6-16.8
			C26.9,360-8.8,405.6,2.3,447.1s64.8,63.1,120,48.3c48.4-13,81.8-49.6,81.9-86.4h0.3V66.5L477,24.6v291.9
			c-23.1-19.6-60.9-27.2-99.6-16.8c-55.2,14.8-90.9,60.4-79.8,101.9s64.8,63.1,120,48.3c48.4-13,81.8-49.7,81.9-86.4h0.3V11.4
			C499.8,5.1,494.7,0,488.4,0z"/>
	</g>
</g>
</svg>
