<?xml version="1.0" encoding="utf-8"?>
<!-- Generator: Adobe Illustrator 18.0.0, SVG Export Plug-In . SVG Version: 6.00 Build 0)  -->
<!DOCTYPE svg PUBLIC "-//W3C//DTD SVG 1.1//EN" "http://www.w3.org/Graphics/SVG/1.1/DTD/svg11.dtd">
<svg version="1.1" id="Arrow_1_" xmlns="http://www.w3.org/2000/svg" xmlns:xlink="http://www.w3.org/1999/xlink" x="0px" y="0px"
	 width="500px" height="500px" viewBox="0 0 500 500" enable-background="new 0 0 500 500" xml:space="preserve">
  <metadata>
    <?xpacket begin="﻿" id="W5M0MpCehiHzreSzNTczkc9d"?>
    <x:xmpmeta xmlns:x="adobe:ns:meta/" x:xmptk="Adobe XMP Core 5.6-c011 79.156380, 2014/06/19-23:40:37        ">
     <rdf:RDF xmlns:rdf="http://www.w3.org/1999/02/22-rdf-syntax-ns#">
      <rdf:Description rdf:about=""
        xmlns:xmpMM="http://ns.adobe.com/xap/1.0/mm/"
        xmlns:stEvt="http://ns.adobe.com/xap/1.0/sType/ResourceEvent#"
        xmlns:xmp="http://ns.adobe.com/xap/1.0/"
        xmlns:xmpRights="http://ns.adobe.com/xap/1.0/rights/"
        xmlns:dc="http://purl.org/dc/elements/1.1/"
       xmpMM:DocumentID="xmp.did:812b5131bb41186be3fda03e528a8cbc"
       xmpMM:OriginalDocumentID="xmp.did:812b5131bb41186be3fda03e528a8cbc"
       xmpMM:InstanceID="xmp.iid:812b5131bb41186be3fda03e528a8cbc"
       xmp:ModifyDate="2015-04-22T15:41:19+02:00"
       xmp:MetadataDate="2015-04-22T15:41:19+02:00"
       xmpRights:Marked="True"
       xmpRights:WebStatement="http://www.adobe.com/legal/general-terms.html">
       <xmpMM:History>
        <rdf:Seq>
         <rdf:li
          stEvt:action="saved"
          stEvt:instanceID="xmp.iid:812b5131bb41186be3fda03e528a8cbc"
          stEvt:when="2015-04-22T15:41:19+02:00"/>
        </rdf:Seq>
       </xmpMM:History>
       <xmpRights:UsageTerms>
        <rdf:Alt>
         <rdf:li xml:lang="x-default">This work is licensed under the Adobe General Terms of Use http://www.adobe.com/legal/general-terms.html.</rdf:li>
        </rdf:Alt>
       </xmpRights:UsageTerms>
       <dc:publisher>
        <rdf:Bag>
         <rdf:li>Adobe Systems Incorporated</rdf:li>
        </rdf:Bag>
       </dc:publisher>
      </rdf:Description>
     </rdf:RDF>
    </x:xmpmeta>
    <?xpacket end="r"?>
  </metadata>
<path fill="#231F20" d="M436.3,420.1l-19.5-110.4c-1.1-6.1-5.6-10.6-11-12.2l-85.9-44c19.7-18.5,32.1-44.7,32.1-73.8v-78.1
	C351.9,45.6,306.2,0,250,0S148.1,45.6,148.1,101.6v78.1c0,28.9,12.2,55,31.8,73.5l-88.4,45.3c-0.4,0.2-0.6,0.5-0.9,0.7
	c-0.8,0.5-1.5,1.1-2.2,1.8c-0.8,0.7-1.5,1.4-2.1,2.2c-0.5,0.7-0.9,1.6-1.3,2.4c-0.5,1-0.9,2-1.2,3c-0.1,0.4-0.3,0.6-0.4,1
	L63.7,420.1c-3.7,21,1.1,41,13.5,56.2c12.4,15.3,30.6,23.7,51.4,23.7h242.9c20.7,0,39-8.4,51.4-23.7
	C435.2,461.1,440,441.1,436.3,420.1z M178.4,101.6c0-38.8,32.1-70.3,71.6-70.3s71.6,31.5,71.6,70.3v78.1c0,38.8-32.1,70.3-71.6,70.3
	s-71.6-31.5-71.6-70.3V101.6z M399.5,456.3c-6.5,8-16.5,12.5-28.1,12.5H128.5c-11.6,0-21.5-4.4-28.1-12.5c-6.5-8-9-18.9-6.9-30.6
	L111.7,323l97.8-50.1c12.4,5.4,26.1,8.4,40.5,8.4c14.2,0,27.7-2.9,40-8.2l98.4,50.4l18.1,102.1C408.5,437.4,406,448.3,399.5,456.3z"
	/>
</svg>
