<?xml version="1.0" encoding="utf-8"?>
<!-- Generator: Adobe Illustrator 19.0.1, SVG Export Plug-In . SVG Version: 6.00 Build 0)  -->
<svg version="1.1" id="レイヤー_1" xmlns="http://www.w3.org/2000/svg" xmlns:xlink="http://www.w3.org/1999/xlink" x="0px"
	 y="0px" viewBox="0 0 500 500" style="enable-background:new 0 0 500 500;" xml:space="preserve">
<style type="text/css">
	.st0{fill:#1A1A1A;}
</style>
<g>
	<path class="st0" d="M254.2,499.6c138-1.9,248.4-115.2,246.6-253.3C498.9,108.3,385.6-2.2,247.5-0.3C109.5,1.6-1,114.9,0.8,253
		C2.8,391,116.1,501.5,254.2,499.6z M248.2,52.8c108.7-1.5,198,85.5,199.5,194.2c1.4,108.7-85.5,198.1-194.2,199.5
		C144.7,448,55.4,361,54,252.3C52.5,143.5,139.5,54.2,248.2,52.8z"/>
	<path class="st0" d="M201.2,342.6c-3.7,2-6.7,0.2-6.7-4V160.7c0-4.3,3-6.1,6.7-4l160.5,89.1c3.8,2.1,3.8,5.4,0,7.5L201.2,342.6z"/>
</g>
</svg>
